HIERARCHY
ROOT root
{
	OFFSET	0	13.1	24.9
	CHANNELS 6  Xposition Yposition Zposition Xrotation Yrotation Zrotation
	JOINT spine_1
	{
		OFFSET	0	9.99999	0
		CHANNELS 3  Xrotation Yrotation Zrotation
		JOINT spine_2
		{
			OFFSET	0	112	-10
			CHANNELS 3  Xrotation Yrotation Zrotation
			JOINT spine_3
			{
				OFFSET	0	206.5	19.3
				CHANNELS 3  Xrotation Yrotation Zrotation
				JOINT spine_4
				{
					OFFSET	0	110.4	14.6
					CHANNELS 3  Xrotation Yrotation Zrotation
					JOINT neck_1
					{
						OFFSET	0	71.8	-50.3
						CHANNELS 3  Xrotation Yrotation Zrotation
						JOINT neck_2
						{
							OFFSET	0	86.2	-25.8
							CHANNELS 3  Xrotation Yrotation Zrotation
							JOINT head_ee
							{
								OFFSET	0	179.8	-8.7
								CHANNELS 3  Xrotation Yrotation Zrotation
								End Site
								{
									OFFSET	1	0	0
								}
							}
						}
					}
					JOINT left_clavicle
					{
						OFFSET	-43.2	22.4	-70.8
						CHANNELS 3  Xrotation Yrotation Zrotation
						JOINT left_shoulder
						{
							OFFSET	-93.9	-5.79999	48.7
							CHANNELS 3  Xrotation Yrotation Zrotation
							JOINT left_elbow
							{
								OFFSET	-291.4	-30.8	15.2
								CHANNELS 3  Xrotation Yrotation Zrotation
								JOINT left_lowarm_twist
								{
									OFFSET	-110.7	-3.89999	13.6
									CHANNELS 3  Xrotation Yrotation Zrotation
									JOINT left_hand
									{
										OFFSET	-110.7	-3.89999	13.6
										CHANNELS 3  Xrotation Yrotation Zrotation
										JOINT left_ee
										{
											OFFSET	-80.8	-5.10001	12.1
											CHANNELS 3  Xrotation Yrotation Zrotation
											End Site
											{
												OFFSET	1	0	0
											}
										}
									}
								}
							}
						}
					}
					JOINT right_clavicle
					{
						OFFSET	43.2	22.4	-70.8
						CHANNELS 3  Xrotation Yrotation Zrotation
						JOINT right_shoulder
						{
							OFFSET	93.9	-5.79999	48.7
							CHANNELS 3  Xrotation Yrotation Zrotation
							JOINT right_elbow
							{
								OFFSET	291.4	-30.8	15.2
								CHANNELS 3  Xrotation Yrotation Zrotation
								JOINT right_lowarm_twist
								{
									OFFSET	110.7	-3.89999	13.6
									CHANNELS 3  Xrotation Yrotation Zrotation
									JOINT right_hand
									{
										OFFSET	110.7	-3.89999	13.6
										CHANNELS 3  Xrotation Yrotation Zrotation
										JOINT right_ee
										{
											OFFSET	80.8	-5.10001	12.1
											CHANNELS 3  Xrotation Yrotation Zrotation
											End Site
											{
												OFFSET	1	0	0
											}
										}
									}
								}
							}
						}
					}
				}
			}
		}
	}
	JOINT left_hip
	{
		OFFSET	-82.8	-127.5	0.300001
		CHANNELS 3  Xrotation Yrotation Zrotation
		JOINT left_knee
		{
			OFFSET	-28.2	-396.7	2.2
			CHANNELS 3  Xrotation Yrotation Zrotation
			JOINT left_ankle
			{
				OFFSET	-11.7	-411.3	35.4
				CHANNELS 3  Xrotation Yrotation Zrotation
				JOINT left_toes
				{
					OFFSET	0	-60	-88.6
					CHANNELS 3  Xrotation Yrotation Zrotation
					JOINT left_foot_ee
					{
						OFFSET	-22.5	-16.5	-42.2
						CHANNELS 3  Xrotation Yrotation Zrotation
						End Site
						{
							OFFSET	1	0	0
						}
					}
				}
			}
		}
	}
	JOINT right_hip
	{
		OFFSET	82.8	-127.5	0.300001
		CHANNELS 3  Xrotation Yrotation Zrotation
		JOINT right_knee
		{
			OFFSET	28.2	-396.7	2.2
			CHANNELS 3  Xrotation Yrotation Zrotation
			JOINT right_ankle
			{
				OFFSET	11.7	-411.3	35.4
				CHANNELS 3  Xrotation Yrotation Zrotation
				JOINT right_toes
				{
					OFFSET	0	-60	-88.6
					CHANNELS 3  Xrotation Yrotation Zrotation
					JOINT right_foot_ee
					{
						OFFSET	22.5	-16.5	-42.2
						CHANNELS 3  Xrotation Yrotation Zrotation
						End Site
						{
							OFFSET	1	0	0
						}
					}
				}
			}
		}
	}
}
MOTION
Frames: 12
Frame Time: 0.02
1372.05 701.618 -1475.22 -15.2967380612 39.9273725656 7.8274347076 3.16889 0.364188 3.07133 3.17412 0.168109 3.08825 3.18132 -0.314679 3.07679 3.16815 0.174952 3.08787 -12.872 11.9686 -2.19105 -13.2496 24.131 1.56982 -0.0 0.0 -0.0 -6.51044 13.6717 -9.1909 11.4294 -18.7558 58.8721 9.52624 -77.9822 7.71786 -12.2758 -0.590522 1.45123 1.16212 -4.14713 6.07977 -0.0 0.0 -0.0 9.62025 7.5586 -19.0272 -48.9877 40.0385 -64.7245 0.473789 13.2085 -0.0548554 39.0515 0.300851 4.88424 0.709403 -29.2324 -15.3492 0.0 0.0 0.0 -22.7786 53.694 19.39 1.82437 -0.0794141 -0.268673 19.5078 -30.0385 -3.34829 17.7863 -0.0 -0.0 -0.0 0.0 -0.0 50.5669 39.6774 -19.8938 -2.25184 -0.0861457 -0.334822 -18.3493 -22.7377 -2.84127 20.8785 -0.0 -0.0 0.0 0.0 0.0 
1297.51659224 701.024 -1519.0760877 -21.036859964 44.3705190766 13.8436581974 3.72516 0.499207 2.43301 3.72839 0.343424 2.45983 3.74152 -0.0191189 2.48359 3.73311 0.373238 2.45548 -13.6367 14.0632 -2.84728 -14.2585 28.542 1.86698 -0.0 0.0 -0.0 -8.88611 17.5399 -11.9192 12.3784 -21.811 63.5731 8.10694 -75.9727 6.33485 -13.2128 -0.648183 1.55635 0.180449 5.60957 3.52731 -0.0 0.0 -0.0 10.0666 7.46178 -19.9907 -45.3962 40.8545 -62.8664 0.380727 10.6808 -0.0355898 41.295 0.418328 5.14601 1.36008 -29.5463 -19.1171 0.0 0.0 0.0 -17.6531 50.2613 14.6306 1.37668 -0.0591336 -0.202973 26.9483 -31.1161 -4.47651 23.2706 -0.0 -0.0 -0.0 0.0 -0.0 55.8765 39.6579 -22.7946 -13.6797 -0.317383 -2.07037 -16.6008 -13.7801 -2.50112 24.638 -0.0 -0.0 0.0 0.0 0.0 
1265.51612439 710.196 -1531.00667357 -21.9917832713 44.1013461188 14.4595723021 3.86602 0.573173 2.39469 3.86911 0.419677 2.42628 3.88522 0.0674615 2.46136 3.87706 0.455226 2.41987 -11.7702 13.6741 -4.07716 -12.1728 28.5291 0.0403552 -0.0 0.0 -0.0 -8.95181 18.3365 -11.7318 10.6507 -22.1449 64.796 6.66998 -73.1259 4.94939 -13.3433 -0.65635 1.57092 0.0394443 6.96652 3.16076 -0.0 0.0 -0.0 10.282 7.45537 -20.4578 -44.036 41.3355 -61.083 0.369357 10.3688 -0.0335129 41.5628 0.433035 5.17694 1.18312 -29.2099 -18.0176 0.0 0.0 0.0 -12.803 48.3495 11.2337 -3.9444 0.142188 0.588526 28.0059 -31.1223 -4.61844 23.8981 -0.0 -0.0 -0.0 0.0 -0.0 54.8834 41.019 -22.8384 -14.7604 -0.321244 -2.23612 -12.3131 -15.8221 -1.85514 26.5149 -0.0 -0.0 0.0 0.0 0.0 
1247.86085171 715.975 -1537.24250517 -21.9315404387 43.1671937674 14.2073628983 3.86547 0.605975 2.31467 3.86834 0.4575 2.34852 3.88556 0.116092 2.38982 3.87793 0.491959 2.34154 -11.4386 13.6887 -5.80317 -11.7882 29.6603 -1.71622 -0.0 0.0 -0.0 -9.20839 19.8462 -11.5712 9.49428 -22.0573 65.266 6.08418 -71.6127 4.39106 -13.2096 -0.647985 1.556 0.0516659 5.69664 2.7185 -0.0 0.0 -0.0 9.97324 7.20322 -19.7879 -43.8996 41.4136 -59.8211 0.426854 11.9396 -0.0446367 41.905 0.45204 5.21638 1.22791 -28.9122 -18.1932 0.0 0.0 0.0 -10.2463 47.3848 9.18247 -10.324 0.285482 1.55654 28.4022 -30.5268 -4.63438 23.8776 -0.0 -0.0 -0.0 0.0 -0.0 53.0936 42.2144 -22.3632 -14.571 -0.320793 -2.20708 -8.9222 -14.7299 -1.33562 28.1666 -0.0 -0.0 0.0 0.0 0.0 
1235.39268172 715.824 -1540.92430701 -22.3729964983 42.8526247946 14.3801840971 4.00869 0.667613 2.30504 4.0115 0.519625 2.34283 4.03113 0.184529 2.39263 4.02358 0.559981 2.33351 -11.006 13.4427 -6.03954 -11.2876 29.3513 -2.1485 -0.0 0.0 -0.0 -9.16612 19.867 -11.4962 8.7857 -22.333 65.6212 5.73747 -70.5864 4.06303 -13.3475 -0.656617 1.57139 -0.00261687 7.02829 2.91203 -0.0 0.0 -0.0 9.81313 7.88485 -19.4426 -41.6464 42.1684 -60.0607 0.395517 11.0856 -0.0383824 41.9286 0.453358 5.21909 1.14973 -28.5913 -17.6576 0.0 0.0 0.0 -6.48819 46.5525 7.11379 -14.6413 0.320972 2.21785 28.8488 -30.2468 -4.67547 24.1536 -0.0 -0.0 -0.0 0.0 -0.0 53.4636 42.2805 -22.5376 -15.7944 -0.322011 -2.39478 -7.88948 -15.4077 -1.1808 28.6584 -0.0 -0.0 0.0 0.0 0.0 
1237.1086401 715.824 -1544.38001728 -21.8754860657 41.5020132162 13.6392668269 4.00869 0.667613 2.30504 4.0115 0.519625 2.34283 4.03113 0.184529 2.39263 4.02358 0.559981 2.33351 -11.006 13.4427 -6.03954 -11.2876 29.3513 -2.1485 -0.0 0.0 -0.0 -9.16612 19.867 -11.4962 8.7857 -22.333 65.6212 5.73747 -70.5864 4.06303 -13.3475 -0.656617 1.57139 -0.00261687 7.02829 2.91203 -0.0 0.0 -0.0 9.81313 7.88485 -19.4426 -41.6464 42.1684 -60.0607 0.395517 11.0856 -0.0383824 41.9286 0.453358 5.21909 1.14973 -28.5913 -17.6576 0.0 0.0 0.0 -6.48819 46.5525 7.11379 -14.6413 0.320972 2.21785 28.8488 -30.2468 -4.67547 24.1536 -0.0 -0.0 -0.0 0.0 -0.0 53.4636 42.2805 -22.5376 -15.7944 -0.322011 -2.39478 -7.88948 -15.4077 -1.1808 28.6584 -0.0 -0.0 0.0 0.0 0.0 
1157.44124209 710.427 -1559.00815328 -26.5364680532 50.7643809502 20.3726748492 4.37946 0.600351 2.11217 4.38182 0.464764 2.14607 4.3976 0.171887 2.18906 4.39128 0.515372 2.13448 -10.3232 14.6141 -5.53391 -10.6001 31.2244 -1.51511 -0.0 0.0 -0.0 -13.0533 25.3219 -14.9833 2.08802 -25.9067 68.0367 5.45306 -69.6581 3.79555 -15.1724 -0.774316 1.77313 0.889733 -4.38494 4.13873 -0.0 0.0 -0.0 10.6214 7.28158 -21.1956 -38.0559 42.8456 -56.4887 0.629832 17.328 -0.095974 44.7349 0.618173 5.53804 1.18207 -16.5385 -14.1246 0.0 0.0 0.0 8.21283 31.6595 -2.61556 -37.7458 -0.32962 5.68011 35.0869 -27.8859 -5.27342 25.9573 -0.0 -0.0 -0.0 0.0 -0.0 46.9235 44.0856 -22.2909 -14.209 -0.319665 -2.15155 15.1693 -23.2672 2.19706 26.2703 -0.0 -0.0 0.0 0.0 0.0 
1160.90230298 710.427 -1567.38302752 -25.3711150156 48.7377358755 18.8461100706 4.37946 0.600351 2.11217 4.38182 0.464764 2.14607 4.3976 0.171887 2.18906 4.39128 0.515372 2.13448 -10.3232 14.6141 -5.53391 -10.6001 31.2244 -1.51511 -0.0 0.0 -0.0 -13.0533 25.3219 -14.9833 2.08802 -25.9067 68.0367 5.45306 -69.6581 3.79555 -15.1724 -0.774316 1.77313 0.889733 -4.38494 4.13873 -0.0 0.0 -0.0 10.6214 7.28158 -21.1956 -38.0559 42.8456 -56.4887 0.629832 17.328 -0.095974 44.7349 0.618173 5.53804 1.18207 -16.5385 -14.1246 0.0 0.0 0.0 8.21283 31.6595 -2.61556 -37.7458 -0.32962 5.68011 35.0869 -27.8859 -5.27342 25.9573 -0.0 -0.0 -0.0 0.0 -0.0 46.9235 44.0856 -22.2909 -14.209 -0.319665 -2.15155 15.1693 -23.2672 2.19706 26.2703 -0.0 -0.0 0.0 0.0 0.0 
1117.18195207 709.559 -1567.75699229 -29.546221662 54.7939420174 23.2971205919 5.30259 0.478779 1.89214 5.30451 0.357429 1.91876 5.31462 0.127231 1.94761 5.30959 0.433166 1.9031 -12.3972 13.9341 -3.30362 -12.8836 28.5466 1.04127 -0.0 0.0 -0.0 -12.7055 23.8915 -15.2187 -5.25247 -27.9562 67.2988 4.07361 -63.6205 2.52741 -15.9482 -0.82629 1.85774 1.26628 -8.65311 4.88107 -0.0 0.0 -0.0 11.2832 6.7944 -22.6384 -34.0868 43.532 -56.2843 0.577813 15.9729 -0.0810679 43.5758 0.548201 5.40727 -0.158119 -19.7215 -7.01666 0.0 0.0 0.0 8.48179 28.2487 -3.27809 -39.3018 -0.422949 5.90031 32.4301 -32.5137 -5.27361 31.0674 -0.0 -0.0 -0.0 0.0 -0.0 42.0458 44.2413 -19.4341 -13.5192 -0.316543 -2.04576 31.7348 -28.0408 4.39103 27.261 -0.0 -0.0 0.0 0.0 0.0 
1099.04422771 717.108 -1573.73067351 -28.0083879053 54.840802808 21.2591098926 5.24407 0.497822 2.00667 5.24623 0.369151 2.03427 5.25728 0.123106 2.06381 5.25162 0.447435 2.0185 -13.7754 13.4833 -2.58496 -14.3523 27.2815 1.94239 -0.0 0.0 -0.0 -12.4721 24.4722 -14.5557 -7.90022 -28.201 67.2476 3.57497 -60.5325 2.08666 -16.3208 -0.851668 1.89814 1.23399 -8.3896 4.77503 -0.0 0.0 -0.0 11.3696 7.00414 -22.8328 -33.6376 44.0085 -56.4658 0.577018 15.9521 -0.0808493 43.077 0.518911 5.35058 -0.441344 -20.4068 -5.59505 0.0 0.0 0.0 9.19788 27.9542 -3.4923 -38.5158 -0.375055 5.78939 31.7351 -31.5702 -5.12272 32.1567 -0.0 -0.0 -0.0 0.0 -0.0 38.0305 44.6782 -17.2677 -12.3899 -0.308683 -1.87266 32.3612 -28.4682 4.4764 25.5311 -0.0 -0.0 0.0 0.0 0.0 
1058.99373991 718.813 -1572.55345838 -27.6704893414 58.3490405806 20.1938711285 5.39643 0.818432 1.9548 5.39829 0.69241 2.0029 5.42057 0.453913 2.06999 5.41543 0.775071 1.97239 -16.0913 12.8635 -0.482125 -16.7546 24.9339 4.25615 -0.0 0.0 -0.0 -12.5628 25.5217 -14.1422 -12.6744 -27.1637 68.5346 2.91124 -55.2512 1.52385 -18.0211 -0.970772 2.08035 1.41621 -9.12998 5.69288 -0.0 0.0 -0.0 11.2617 9.53526 -22.6197 -27.0191 45.4338 -60.1202 0.566739 15.682 -0.0780475 43.2845 0.531038 5.3742 -0.782826 -19.7192 -3.2811 0.0 0.0 0.0 12.1488 27.3773 -4.83387 -43.8959 -0.733043 6.53487 37.4133 -27.5924 -5.5003 35.8307 -0.0 -0.0 -0.0 0.0 -0.0 25.1046 41.8105 -9.21364 -0.791516 -0.0317816 -0.117309 33.2158 -26.7573 4.51947 24.1865 -0.0 -0.0 0.0 0.0 0.0 
1041.30347451 720.566 -1578.15285617 -28.1642278987 58.2986897265 20.2022673553 5.78695 0.87627 2.01466 5.7889 0.746324 2.06631 5.81353 0.51477 2.13577 5.80816 0.845547 2.02774 -16.2539 12.9653 -0.954655 -16.9565 25.4027 3.90021 -0.0 0.0 -0.0 -12.4163 25.2513 -14.0661 -14.3914 -26.6294 69.4925 2.4607 -50.6276 1.16403 -19.0103 -1.04254 2.18472 1.39146 -8.43321 5.82399 -0.0 0.0 -0.0 11.2905 11.0531 -22.6773 -25.059 45.6915 -61.3307 0.475599 13.2572 -0.0552696 44.3076 0.592071 5.49 -0.631406 -19.5733 -4.12389 0.0 0.0 0.0 14.6782 26.8597 -4.42349 -45.3552 -0.842122 6.7311 36.6207 -25.0167 -5.27194 37.8066 -0.0 -0.0 -0.0 0.0 -0.0 19.1845 38.1689 -6.00183 5.39633 0.259528 0.786915 28.3019 -27.3292 3.96605 24.4053 -0.0 -0.0 0.0 0.0 0.0 
